<?xml version="1.0" encoding="UTF-8"?>
<svg version="1.1" xmlns="http://www.w3.org/2000/svg" width="851" height="293">
<path d="M0 0 C6.93 0 13.86 0 21 0 C24.50840212 4.08512576 26.07434422 6.21283575 28.02001953 10.87695312 C29.92845502 15.01142124 32.52617833 18.74966176 35 22.5625 C35.95901478 24.08420617 36.91734942 25.60634119 37.875 27.12890625 C41.51241742 32.79873066 45.26337403 38.39506104 49 44 C49.33 29.48 49.66 14.96 50 0 C55.94 0 61.88 0 68 0 C68 25.74 68 51.48 68 78 C61.4 78 54.8 78 48 78 C44.21652841 74.20973582 43.00737881 72.59052956 41 68 C39.95390357 66.29221998 38.88349415 64.59908987 37.7890625 62.921875 C36.73132114 61.19978869 35.67663293 59.47582335 34.625 57.75 C29.53223235 49.41987 24.28255168 41.21730262 19 33 C18.67 47.85 18.34 62.7 18 78 C12.06 78 6.12 78 0 78 C0 52.26 0 26.52 0 0 Z " fill="#EF0304" transform="translate(637,88)"/>
<path d="M0 0 C8.51127577 7.0462201 14.52031913 15.88184233 16 27 C16.92664767 37.67299553 15.21544774 48.13191884 8.80078125 56.90234375 C0.5379738 66.52734939 -8.56832355 72.18280419 -21.25 73.75 C-33.1695135 74.64804554 -43.84566976 71.0113375 -53.15234375 63.62890625 C-61.0413251 56.67392692 -66.3055681 47.73344612 -67.2578125 37.12890625 C-67.6381249 26.56889866 -65.70829212 16.11623973 -58.76171875 7.83984375 C-42.76573851 -8.86549259 -20.03788053 -14.29749127 0 0 Z M-42.6640625 16.64453125 C-46.76560166 21.95734367 -48.53937076 28.10053831 -48.3046875 34.828125 C-47.23313737 42.46635413 -44.05018606 47.93344839 -38 52.66015625 C-32.44818687 56.37943731 -26.51238241 56.7964059 -20 56 C-13.78809625 54.16715914 -9.50691968 50.36416686 -6 45 C-2.37699571 38.17781456 -2.04061565 31.64474258 -4.25 24.3125 C-6.60833441 17.92854359 -10.12534177 14.42688397 -16 11 C-25.4273678 8.04162098 -35.51354901 9.57794397 -42.6640625 16.64453125 Z " fill="#F20203" transform="translate(272,94)"/>
<path d="M0 0 C6.39375 -0.061875 12.7875 -0.12375 19.375 -0.1875 C22.37086182 -0.22846802 22.37086182 -0.22846802 25.42724609 -0.27026367 C39.3926706 -0.38307737 50.44639664 0.8351968 60.9765625 10.88671875 C68.83110848 19.39302492 72.52528483 29.15650899 72.18359375 40.75390625 C71.27029055 51.92729643 66.8372964 61.23536822 58.66796875 68.953125 C41.30572508 82.27349935 21.62850329 78 0 78 C0 52.26 0 26.52 0 0 Z M19 17 C18.83279639 23.10539632 18.67219567 29.21091617 18.51782227 35.31665039 C18.46431893 37.39547448 18.40898342 39.47425222 18.35180664 41.55297852 C18.27012741 44.53391523 18.19495162 47.51495431 18.12109375 50.49609375 C18.08054115 51.89921059 18.08054115 51.89921059 18.03916931 53.33067322 C18.01907303 54.19149002 17.99897675 55.05230682 17.97827148 55.93920898 C17.95828598 56.70087875 17.93830048 57.46254852 17.91770935 58.24729919 C17.80426891 60.02865759 17.80426891 60.02865759 19 61 C28.71997417 61.64469216 37.36983977 61.50321081 45.8125 56.25 C50.61363152 51.3116933 53.07455912 45.68773913 53.3125 38.8125 C53.2134076 32.78768197 51.39603746 27.71512235 47.38671875 23.171875 C41.24650292 17.56263127 35.18565383 16.69739237 27.125 16.875 C26.34125 16.88402344 25.5575 16.89304687 24.75 16.90234375 C22.83319945 16.92571937 20.91655809 16.96158347 19 17 Z " fill="#F20203" transform="translate(510,88)"/>
<path d="M0 0 C18.81 0 37.62 0 57 0 C57 5.61 57 11.22 57 17 C44.13 17 31.26 17 18 17 C18 21.29 18 25.58 18 30 C29.88 30 41.76 30 54 30 C54 35.61 54 41.22 54 47 C42.12 47 30.24 47 18 47 C18 51.62 18 56.24 18 61 C30.87 61 43.74 61 57 61 C57 66.61 57 72.22 57 78 C38.19 78 19.38 78 0 78 C-0.97231634 74.11073464 -1.12684126 71.06625873 -1.12939453 67.07592773 C-1.13114685 66.387659 -1.13289917 65.69939026 -1.13470459 64.99026489 C-1.13909623 62.72134866 -1.13619491 60.45251074 -1.1328125 58.18359375 C-1.13348623 56.60465988 -1.13445684 55.02572612 -1.13571167 53.4467926 C-1.13718493 50.14070649 -1.13504571 46.83464742 -1.13037109 43.52856445 C-1.12466935 39.28932007 -1.12795797 35.05013894 -1.13394356 30.81089687 C-1.13755519 27.55185977 -1.13640788 24.29283768 -1.13381577 21.03380013 C-1.13314841 19.47047989 -1.13396826 17.90715829 -1.13629532 16.34383965 C-1.1388322 14.16074884 -1.13496681 11.97776088 -1.12939453 9.79467773 C-1.12859894 8.55209702 -1.12780334 7.3095163 -1.12698364 6.02928162 C-1 3 -1 3 0 0 Z " fill="#F90001" transform="translate(446,88)"/>
<path d="M0 0 C6.27 0 12.54 0 19 0 C19.33 10.56 19.66 21.12 20 32 C27.4302971 22.45716745 34.8567227 12.9131568 42.20703125 3.30859375 C44 1 44 1 45 0 C46.56172745 -0.08685603 48.12729344 -0.10702219 49.69140625 -0.09765625 C50.63564453 -0.09443359 51.57988281 -0.09121094 52.55273438 -0.08789062 C53.54595703 -0.07951172 54.53917969 -0.07113281 55.5625 -0.0625 C56.55958984 -0.05798828 57.55667969 -0.05347656 58.58398438 -0.04882812 C61.05604849 -0.03700007 63.52799518 -0.02051849 66 0 C64.26477323 3.61589859 62.15085277 6.57304095 59.6875 9.75 C59.25743652 10.3056665 58.82737305 10.86133301 58.38427734 11.43383789 C54.171847 16.84503025 49.83678224 22.15731797 45.4675293 27.44238281 C42.4040711 31.17082523 39.60141403 34.93450513 37 39 C38.87418947 41.31316076 40.74923542 43.62561681 42.625 45.9375 C43.20241943 46.6495459 43.77983887 47.3615918 44.37475586 48.09521484 C47.51166505 51.95764758 50.66230126 55.80762202 53.83984375 59.63671875 C54.4622998 60.38767822 55.08475586 61.1386377 55.72607422 61.91235352 C56.92448273 63.35627486 58.12522515 64.79826323 59.32861328 66.23803711 C62.47332208 70.02937723 65.35279116 73.84472353 68 78 C64.14686872 78.23382288 60.29557088 78.37489753 56.4375 78.5 C54.80844727 78.60054687 54.80844727 78.60054687 53.14648438 78.703125 C45.22294358 78.89579468 45.22294358 78.89579468 41.85620117 76.4296875 C40.04533007 74.37794454 38.51860796 72.27475817 37 70 C36.05011717 68.80468456 35.09095722 67.61666124 34.12109375 66.4375 C33.22425075 65.29347517 32.32968726 64.14765939 31.4375 63 C30.99470703 62.43539062 30.55191406 61.87078125 30.09570312 61.2890625 C26.66743929 56.90326622 23.34146743 52.4552899 20 48 C19.67 57.9 19.34 67.8 19 78 C12.73 78 6.46 78 0 78 C0 52.26 0 26.52 0 0 Z " fill="#F00303" transform="translate(375,88)"/>
<path d="M0 0 C8.05026009 6.93423512 8.05026009 6.93423512 10.0625 10.6875 C10.078125 12.625 10.078125 12.625 9.0625 14.6875 C6.4453125 16.86328125 6.4453125 16.86328125 3.1875 19 C2.11757813 19.71800781 1.04765625 20.43601562 -0.0546875 21.17578125 C-1.48167969 21.92408203 -1.48167969 21.92408203 -2.9375 22.6875 C-6.23440481 21.58853173 -6.68744946 20.97548864 -8.6875 18.3125 C-12.49842449 13.7858653 -15.9596746 12.01608763 -21.76953125 11.375 C-28.34331408 11.1103949 -33.59568421 11.65944865 -38.9375 15.6875 C-43.19309383 19.66011317 -45.6711988 23.95531886 -46.23828125 29.7734375 C-46.261208 36.20821205 -46.20827188 41.08046249 -42.9375 46.6875 C-42.421875 47.574375 -41.90625 48.46125 -41.375 49.375 C-36.72168098 53.78968728 -30.69888826 55.88149819 -24.3125 56.125 C-15.00862068 55.5854077 -10.02779158 51.50668286 -3.9375 44.6875 C-0.31473685 46.0130581 2.69755348 47.63096955 5.875 49.8125 C7.06029297 50.62074219 7.06029297 50.62074219 8.26953125 51.4453125 C8.86121094 51.85523438 9.45289063 52.26515625 10.0625 52.6875 C8.90028886 59.80454551 4.91350601 63.23739836 -0.6875 67.375 C-11.11801455 74.35435464 -22.6117455 75.9174999 -34.8828125 73.54296875 C-45.44631783 70.58464692 -54.34877463 65.125979 -60.1875 55.8125 C-65.99611403 45.41895329 -68.34655441 35.3896562 -65.78515625 23.515625 C-62.28050524 11.822688 -56.05990553 3.47176756 -45.5625 -2.6875 C-31.35082453 -9.88130547 -13.04708163 -9.71963799 0 0 Z " fill="#F20203" transform="translate(358.9375,93.3125)"/>
<path d="M0 0 C5.94 0 11.88 0 18 0 C18 20.13 18 40.26 18 61 C29.88 61 41.76 61 54 61 C54 66.61 54 72.22 54 78 C36.18 78 18.36 78 0 78 C0 52.26 0 26.52 0 0 Z " fill="#F10303" transform="translate(146,88)"/>
<path d="M0 0 C6.27 0 12.54 0 19 0 C19 25.74 19 51.48 19 78 C13.06 78 7.12 78 1 78 C-0.68503699 76.31496301 -0.11965983 74.23740116 -0.12442017 71.98905945 C-0.12082489 71.27264786 -0.11722961 70.55623627 -0.11352539 69.81811523 C-0.11367142 69.06694427 -0.11381744 68.31577332 -0.1139679 67.5418396 C-0.11326863 65.04739541 -0.10547564 62.55302497 -0.09765625 60.05859375 C-0.09579212 58.33366436 -0.09436819 56.60873443 -0.09336853 54.88380432 C-0.08954297 50.33487497 -0.07971238 45.78597733 -0.06866455 41.23706055 C-0.05845124 36.59879994 -0.05387108 31.96053423 -0.04882812 27.32226562 C-0.03809013 18.21482754 -0.02049304 9.10742137 0 0 Z " fill="#EF0304" transform="translate(610,88)"/>
<path d="M0 0 C11.88 0 23.76 0 36 0 C36 5.61 36 11.22 36 17 C24.12 17 12.24 17 0 17 C0 21.62 0 26.24 0 31 C12.87 31 25.74 31 39 31 C39 36.61 39 42.22 39 48 C20.19 48 1.38 48 -18 48 C-18.83378093 44.66487626 -19.11814364 42.37555768 -19.09765625 39.015625 C-19.09443359 38.08105469 -19.09121094 37.14648438 -19.08789062 36.18359375 C-19.07951172 35.21550781 -19.07113281 34.24742187 -19.0625 33.25 C-19.05798828 32.26644531 -19.05347656 31.28289062 -19.04882812 30.26953125 C-19.03706483 27.84629209 -19.02062684 25.42317727 -19 23 C-18.34 23 -17.68 23 -17 23 C-17 30.92 -17 38.84 -17 47 C0.82 47 18.64 47 37 47 C37 42.38 37 37.76 37 33 C35.88439697 33.00523682 34.76879395 33.01047363 33.61938477 33.01586914 C29.49520667 33.03391775 25.37103209 33.04543149 21.24682617 33.05493164 C19.45905979 33.05997218 17.67129755 33.06680454 15.88354492 33.07543945 C13.31948832 33.0875173 10.75548603 33.09323094 8.19140625 33.09765625 C6.98515343 33.10539818 6.98515343 33.10539818 5.75453186 33.11329651 C3.83598285 33.11349215 1.91754632 33.06201983 0 33 C-1.82116003 31.17883997 -1.1323508 28.69328236 -1.13671875 26.2734375 C-1.13285156 25.52320313 -1.12898438 24.77296875 -1.125 24 C-1.13080078 22.87464844 -1.13080078 22.87464844 -1.13671875 21.7265625 C-1.12661053 16.12661053 -1.12661053 16.12661053 0 15 C2.59359322 14.91148471 5.16039691 14.88474055 7.75390625 14.90234375 C8.52935287 14.9037587 9.3047995 14.90517365 10.10374451 14.90663147 C12.59003494 14.91224655 15.0762366 14.92480154 17.5625 14.9375 C19.24413933 14.94251306 20.92578006 14.9470763 22.60742188 14.95117188 C26.73831566 14.96222087 30.86914276 14.97949555 35 15 C35 10.38 35 5.76 35 1 C23.45 1 11.9 1 0 1 C0 0.67 0 0.34 0 0 Z " fill="#C20D0E" transform="translate(464,118)"/>
<path d="M0 0 C11.0800451 -0.48703495 11.0800451 -0.48703495 15.1875 1.6875 C17.24976822 4.3186698 18 5.65184955 18 9 C17.46375 9.78375 16.9275 10.5675 16.375 11.375 C14.73182281 13.8053268 14.73182281 13.8053268 15.46484375 15.87109375 C16.22794706 17.61884649 17.1076992 19.31454292 18 21 C15.69 21 13.38 21 11 21 C10.34 19.02 9.68 17.04 9 15 C8.34 15 7.68 15 7 15 C7 16.98 7 18.96 7 21 C4.69 21 2.38 21 0 21 C0 14.07 0 7.14 0 0 Z M7 6 C7 7.32 7 8.64 7 10 C8.32 9.67 9.64 9.34 11 9 C11 8.01 11 7.02 11 6 C9.68 6 8.36 6 7 6 Z " fill="#F9F9FA" transform="translate(317,182)"/>
<path d="M0 0 C3.09251553 1.81517216 4.58688714 3.28644142 6.375 6.375 C7.16443985 9.69064735 6.95479302 11.72642391 6 15 C2.84745763 19.57627119 2.84745763 19.57627119 0 21 C-8.87635575 21.42950108 -8.87635575 21.42950108 -12 19 C-14.29088372 16.13639535 -14.96980455 14.20759371 -15.5 10.5625 C-14.83624442 5.83324149 -13.34318209 4.34318209 -10 1 C-6.79139471 -0.60430264 -3.4809543 -0.48105318 0 0 Z M-7 6 C-8.21297649 8.2806707 -8.21297649 8.2806707 -9 11 C-8.23396041 13.2857711 -8.23396041 13.2857711 -7 15 C-5.02 15 -3.04 15 -1 15 C-0.32326553 11.59679066 -0.32326553 11.59679066 0 8 C-1.83883881 5.71271266 -1.83883881 5.71271266 -4.625 5.875 C-5.40875 5.91625 -6.1925 5.9575 -7 6 Z " fill="#F9F9F9" transform="translate(504,182)"/>
<path d="M0 0 C3.02508145 1.73602105 5.41790069 3.83580137 7 7 C7.3751455 11.97067782 7.15878799 15.05151502 4 19 C0.99014128 21.34100123 -2.28060327 21.42128203 -6.03515625 21.31640625 C-9.24330151 20.79978644 -10.84118317 19.34930067 -13 17 C-14.69932147 14.06480836 -15.01645196 12.39484713 -14.875 9 C-13.86530833 5.5382 -12.46052585 3.60964863 -10 1 C-6.77140153 -0.61429923 -3.49006347 -0.59570657 0 0 Z M-8 8 C-8.33333333 10.5 -8.33333333 10.5 -8 13 C-6.17084359 15.23845015 -6.17084359 15.23845015 -3.5 15.3125 C-2.675 15.209375 -1.85 15.10625 -1 15 C1.31543207 12.23011924 1.31543207 12.23011924 0.6875 9.375 C0.2258486 7.06498035 0.2258486 7.06498035 -1 6 C-4.961168 5.60909667 -4.961168 5.60909667 -8 8 Z " fill="#F9F9F9" transform="translate(290,182)"/>
<path d="M0 0 C2.5 1 2.5 1 4 2 C3.625 4.9375 3.625 4.9375 3 8 C2.01 8.495 2.01 8.495 1 9 C1.99 9.66 2.98 10.32 4 11 C4.66501732 17.09599208 4.66501732 17.09599208 2.75 19.69921875 C-0.45793495 22.08368826 -4.18369699 21.52131635 -8 21 C-11.0625 19.5 -11.0625 19.5 -13 18 C-12.67 16.35 -12.34 14.7 -12 13 C-11.1646875 13.2165625 -11.1646875 13.2165625 -10.3125 13.4375 C-7.88615805 14.02769128 -5.45093655 14.523429 -3 15 C-3.56589844 14.65066406 -4.13179688 14.30132812 -4.71484375 13.94140625 C-5.44832031 13.48636719 -6.18179687 13.03132812 -6.9375 12.5625 C-7.66839844 12.11003906 -8.39929688 11.65757812 -9.15234375 11.19140625 C-11 10 -11 10 -12 9 C-12.42846279 5.82937535 -12.25779973 4.39744124 -10.5 1.6875 C-7.00114231 -0.67422894 -4.10762414 -0.58920838 0 0 Z M-5 5 C-5 5.66 -5 6.32 -5 7 C-4.01 7.33 -3.02 7.66 -2 8 C-1.34 7.34 -0.68 6.68 0 6 C-1.65 5.67 -3.3 5.34 -5 5 Z " fill="#F7F7F7" transform="translate(465,182)"/>
<path d="M0 0 C2.5 2 2.5 2 4 4 C3.67 4.99 3.34 5.98 3 7 C0.36 6.67 -2.28 6.34 -5 6 C-3.68 6.33 -2.36 6.66 -1 7 C-1 7.66 -1 8.32 -1 9 C-0.360625 9.226875 0.27875 9.45375 0.9375 9.6875 C3 11 3 11 4 13.3125 C4 16 4 16 2.625 18.8125 C-0.68924539 21.57437116 -2.59886867 21.49284115 -6.78125 21.37109375 C-9.1723958 20.9711662 -10.8996112 20.18862912 -13 19 C-13 17.35 -13 15.7 -13 14 C-9.09567131 14 -6.61973402 14.68373308 -3 16 C-3 15.34 -3 14.68 -3 14 C-4.11375 13.71125 -5.2275 13.4225 -6.375 13.125 C-10 12 -10 12 -12 10 C-12.66932271 3.86454183 -12.66932271 3.86454183 -10.5 1.0625 C-6.95941272 -0.4422496 -3.78646275 -0.73711877 0 0 Z " fill="#F7F7F7" transform="translate(402,182)"/>
<path d="M0 0 C2.9375 1.5 2.9375 1.5 5 3 C4.34 4.65 3.68 6.3 3 8 C2.401875 7.67 1.80375 7.34 1.1875 7 C-1.05386471 5.79212012 -1.05386471 5.79212012 -4 6 C-3.43410156 6.29132813 -2.86820313 6.58265625 -2.28515625 6.8828125 C3.68031225 10.21676502 3.68031225 10.21676502 5.25 14.0625 C5 17 5 17 3.625 19.375 C-0.18948513 21.73634794 -3.62279944 21.69874578 -8 21 C-10.5625 19.5 -10.5625 19.5 -12 18 C-11.67 16.35 -11.34 14.7 -11 13 C-8.03 13.99 -5.06 14.98 -2 16 C-2 15.34 -2 14.68 -2 14 C-3.11375 13.71125 -4.2275 13.4225 -5.375 13.125 C-9 12 -9 12 -11 10 C-11.375 6.5625 -11.375 6.5625 -11 3 C-7.98974453 -0.73271678 -4.53333093 -0.47719273 0 0 Z " fill="#F6F6F7" transform="translate(214,182)"/>
<path d="M0 0 C1.65 0 3.3 0 5 0 C13 15.42857143 13 15.42857143 13 21 C11.02 21 9.04 21 7 21 C6.67 20.01 6.34 19.02 6 18 C3.69 18 1.38 18 -1 18 C-1.33 18.99 -1.66 19.98 -2 21 C-3.98 21 -5.96 21 -8 21 C-6.033631 13.63011293 -3.30417422 6.86954798 0 0 Z M2 9 C1.67 10.32 1.34 11.64 1 13 C1.99 12.67 2.98 12.34 4 12 C3.34 11.01 2.68 10.02 2 9 Z " fill="#F7F7F7" transform="translate(603,182)"/>
<path d="M0 0 C3.77726372 0.0392443 5.49551722 0.1750793 8.875 2 C11.00520083 4.62724769 11.75 5.92782682 11.75 9.3125 C9.55597015 13.90951493 9.55597015 13.90951493 6.75 15.3125 C4.75039988 15.352492 2.74952758 15.35596799 0.75 15.3125 C0.75 17.2925 0.75 19.2725 0.75 21.3125 C-1.23 21.3125 -3.21 21.3125 -5.25 21.3125 C-5.44592461 18.00044116 -5.63032746 14.68784146 -5.8125 11.375 C-5.86857422 10.42947266 -5.92464844 9.48394531 -5.98242188 8.50976562 C-6.03076172 7.61064453 -6.07910156 6.71152344 -6.12890625 5.78515625 C-6.1760376 4.95250244 -6.22316895 4.11984863 -6.27172852 3.26196289 C-6.2271297 -0.73940269 -3.34561739 0.08498226 0 0 Z M0.75 6.3125 C0.75 7.6325 0.75 8.9525 0.75 10.3125 C2.4 9.9825 4.05 9.6525 5.75 9.3125 C5.42 8.3225 5.09 7.3325 4.75 6.3125 C3.43 6.3125 2.11 6.3125 0.75 6.3125 Z " fill="#F9F9F9" transform="translate(244.25,181.6875)"/>
<path d="M0 0 C2.5 1.5 2.5 1.5 4 3 C3.34 4.32 2.68 5.64 2 7 C-0.97 6.67 -3.94 6.34 -7 6 C-7.04241723 8.33294775 -7.04092937 10.66702567 -7 13 C-6.01732141 14.20561184 -6.01732141 14.20561184 -4.15234375 14.09765625 C-2.1015625 14.06510417 -0.05078125 14.03255208 2 14 C2.66 15.32 3.32 16.64 4 18 C-0.09106241 20.97531812 -2.97061945 21.62867257 -8 21 C-11.03560696 19.17863582 -12.60600091 17.68054389 -14.375 14.625 C-15.16443985 11.30935265 -14.95479302 9.27357609 -14 6 C-10.06102127 0.28212765 -6.8882011 -0.81678274 0 0 Z " fill="#F8F8F8" transform="translate(545,182)"/>
<path d="M0 0 C18.81 0 37.62 0 57 0 C57 5.61 57 11.22 57 17 C44.13 17 31.26 17 18 17 C18 21.29 18 25.58 18 30 C17.67 30 17.34 30 17 30 C16.97314588 27.68756208 16.95367159 25.3750373 16.9375 23.0625 C16.92589844 21.77472656 16.91429687 20.48695312 16.90234375 19.16015625 C17 16 17 16 18 15 C20.73894085 14.91141354 23.4525327 14.88476521 26.19140625 14.90234375 C27.01124496 14.9037587 27.83108368 14.90517365 28.67576599 14.90663147 C31.30471382 14.91224711 33.93357773 14.92480221 36.5625 14.9375 C38.34049357 14.94251299 40.11848846 14.94707624 41.89648438 14.95117188 C46.26435545 14.96222161 50.63216348 14.97949669 55 15 C55 10.38 55 5.76 55 1 C37.18 1 19.36 1 1 1 C1.33 3.31 1.66 5.62 2 8 C1.9662982 10.43949198 1.86262342 12.87906853 1.6875 15.3125 C1.60886719 16.52550781 1.53023438 17.73851563 1.44921875 18.98828125 C1 22 1 22 -1 24 C-1.02901394 20.5625177 -1.04680335 17.12506688 -1.0625 13.6875 C-1.07087891 12.71103516 -1.07925781 11.73457031 -1.08789062 10.72851562 C-1.09111328 9.79072266 -1.09433594 8.85292969 -1.09765625 7.88671875 C-1.10551147 6.59060669 -1.10551147 6.59060669 -1.11352539 5.26831055 C-1 3 -1 3 0 0 Z " fill="#BE0E0D" transform="translate(446,88)"/>
<path d="M0 0 C2.31243792 -0.02685412 4.6249627 -0.04632841 6.9375 -0.0625 C8.22527344 -0.07410156 9.51304687 -0.08570313 10.83984375 -0.09765625 C14 0 14 0 15 1 C15.04063832 2.66617115 15.042721 4.33388095 15 6 C13.35 6 11.7 6 10 6 C10 10.95 10 15.9 10 21 C8.02 21 6.04 21 4 21 C4 16.05 4 11.1 4 6 C2.35 5.67 0.7 5.34 -1 5 C-0.67 3.35 -0.34 1.7 0 0 Z " fill="#F7F7F8" transform="translate(355,182)"/>
<path d="M0 0 C1.66611905 -0.042721 3.33382885 -0.04063832 5 0 C6 1 6 1 6.09765625 4.16015625 C6.08605469 5.44792969 6.07445312 6.73570312 6.0625 8.0625 C6.05347656 9.35285156 6.04445313 10.64320313 6.03515625 11.97265625 C6.02355469 12.97167969 6.01195312 13.97070312 6 15 C6.969375 14.979375 7.93875 14.95875 8.9375 14.9375 C12 15 12 15 13 16 C13 17.65 13 19.3 13 21 C8.71 21 4.42 21 0 21 C-1.24078003 17.2776599 -1.14555459 13.81203967 -1.125 9.9375 C-1.12886719 9.20466797 -1.13273438 8.47183594 -1.13671875 7.71679688 C-1.12668491 2.25336982 -1.12668491 2.25336982 0 0 Z " fill="#F3F3F4" transform="translate(636,182)"/>
<path d="M0 0 C0.74886475 0.00523682 1.49772949 0.01047363 2.26928711 0.01586914 C3.07817383 0.0190918 3.88706055 0.02231445 4.72045898 0.02563477 C5.5705957 0.03401367 6.42073242 0.04239258 7.29663086 0.05102539 C8.15063477 0.05553711 9.00463867 0.06004883 9.88452148 0.06469727 C12.00108749 0.07652166 14.11761771 0.0944577 16.23413086 0.11352539 C16.23413086 0.77352539 16.23413086 1.43352539 16.23413086 2.11352539 C10.62413086 2.11352539 5.01413086 2.11352539 -0.76586914 2.11352539 C-0.76586914 16.30352539 -0.76586914 30.49352539 -0.76586914 45.11352539 C11.27499819 45.62531457 11.27499819 45.62531457 21.49975586 42.76977539 C23.23413086 42.11352539 23.23413086 42.11352539 26.23413086 42.11352539 C25.23413086 44.11352539 25.23413086 44.11352539 23.23413086 46.11352539 C20.48040177 46.48286184 18.03047425 46.29689217 15.23413086 46.11352539 C15.23413086 46.77352539 15.23413086 47.43352539 15.23413086 48.11352539 C9.62413086 48.11352539 4.01413086 48.11352539 -1.76586914 48.11352539 C-2.9379753 45.76931306 -2.89263998 44.38320304 -2.89526367 41.77148438 C-2.89841583 40.87392929 -2.90156799 39.97637421 -2.90481567 39.05162048 C-2.90177933 37.59532982 -2.90177933 37.59532982 -2.89868164 36.10961914 C-2.89963837 35.11599869 -2.90059509 34.12237823 -2.90158081 33.09864807 C-2.902262 30.99626604 -2.90041194 28.89388191 -2.89624023 26.79150391 C-2.89088552 23.56090611 -2.89619019 20.330447 -2.90258789 17.09985352 C-2.90192721 15.06144175 -2.90064625 13.02303007 -2.89868164 10.98461914 C-2.90070587 10.01173447 -2.9027301 9.03884979 -2.90481567 8.03648376 C-2.90166351 7.14208084 -2.89851135 6.24767792 -2.89526367 5.32617188 C-2.89446808 4.53500473 -2.89367249 3.74383759 -2.89285278 2.92869568 C-2.72232204 0.49104041 -2.44295633 0.15705443 0 0 Z " fill="#C30B0A" transform="translate(529.765869140625,102.886474609375)"/>
<path d="M0 0 C1.2065625 0.0309375 1.2065625 0.0309375 2.4375 0.0625 C3.3959336 2.93780081 3.50406387 4.35299931 3.31640625 7.29296875 C3.26806641 8.09541016 3.21972656 8.89785156 3.16992188 9.72460938 C3.11384766 10.55798828 3.05777344 11.39136719 3 12.25 C2.94779297 13.09498047 2.89558594 13.93996094 2.84179688 14.81054688 C2.71226311 16.89486299 2.57556823 18.97873182 2.4375 21.0625 C0.4575 21.0625 -1.5225 21.0625 -3.5625 21.0625 C-3.59138146 17.75001813 -3.60925799 14.43756833 -3.625 11.125 C-3.63337891 10.17947266 -3.64175781 9.23394531 -3.65039062 8.25976562 C-3.65361328 7.36064453 -3.65683594 6.46152344 -3.66015625 5.53515625 C-3.66539307 4.70250244 -3.67062988 3.86984863 -3.67602539 3.01196289 C-3.50016074 -0.00799247 -3.04049625 0.07415845 0 0 Z " fill="#F6F6F8" transform="translate(572.5625,181.9375)"/>
<path d="M0 0 C4.95932922 2.40452326 9.10452785 6.31509009 12 11 C12.0625 12.984375 12.0625 12.984375 11 15 C8.3828125 17.17578125 8.3828125 17.17578125 5.125 19.3125 C4.05507813 20.03050781 2.98515625 20.74851562 1.8828125 21.48828125 C0.45582031 22.23658203 0.45582031 22.23658203 -1 23 C-1.99 22.67 -2.98 22.34 -4 22 C-4 21.34 -4 20.68 -4 20 C-2.35 19.67 -0.7 19.34 1 19 C1.66 17.02 2.32 15.04 3 13 C3.66 13 4.32 13 5 13 C5 10.69 5 8.38 5 6 C4.34 6 3.68 6 3 6 C2.67 5.01 2.34 4.02 2 3 C1.34 2.67 0.68 2.34 0 2 C0 1.34 0 0.68 0 0 Z " fill="#DB090B" transform="translate(357,93)"/>
<path d="M0 0 C5.257285 4.33838991 6.55181343 12.40963582 7.359375 18.87890625 C7.68098606 29.92624609 4.7843137 39.30553973 -2 48 C-2 44.61976483 -1.12544378 42.16531063 0 39 C0.66 39 1.32 39 2 39 C2.50572372 36.0540366 3.00081973 33.10723412 3.4765625 30.15625 C3.77121482 28.37954048 4.08445213 26.60493581 4.4609375 24.84375 C5.49455843 19.42298245 4.19167338 14.89101755 2.69140625 9.63671875 C2 7 2 7 2 4 C1.34 4 0.68 4 0 4 C0 2.68 0 1.36 0 0 Z " fill="#C30F10" transform="translate(281,105)"/>
<path d="M0 0 C0 0.33 0 0.66 0 1 C-1.14597656 1.10957031 -2.29195313 1.21914062 -3.47265625 1.33203125 C-5.00266527 1.49160274 -6.53260995 1.65179195 -8.0625 1.8125 C-8.81466797 1.88275391 -9.56683594 1.95300781 -10.34179688 2.02539062 C-18.08007903 2.86286705 -23.58032733 5.53414075 -30 10 C-30.886875 10.515625 -31.77375 11.03125 -32.6875 11.5625 C-34.79654054 12.8735252 -36.34219478 14.16768896 -38 16 C-38.66 15.67 -39.32 15.34 -40 15 C-29.00553393 2.31696405 -16.14303189 -0.49926903 0 0 Z " fill="#BF0F0F" transform="translate(341,86)"/>
<path d="M0 0 C1.65 0 3.3 0 5 0 C-3.81683455 7.20613796 -16.44042014 5.0610172 -27.125 4.625 C-28.76558732 4.56663919 -30.40621272 4.50933893 -32.046875 4.453125 C-36.03179442 4.31430682 -40.01592362 4.16114649 -44 4 C-43.67 3.01 -43.34 2.02 -43 1 C-43 1.66 -43 2.32 -43 3 C-28.81 2.67 -14.62 2.34 0 2 C0 1.34 0 0.68 0 0 Z " fill="#E20709" transform="translate(555,161)"/>
<path d="M0 0 C3.62276315 1.3255581 6.63505348 2.94346955 9.8125 5.125 C10.60269531 5.66382813 11.39289063 6.20265625 12.20703125 6.7578125 C12.79871094 7.16773438 13.39039063 7.57765625 14 8 C13.67 8.99 13.34 9.98 13 11 C13 10.34 13 9.68 13 9 C11.88625 8.566875 11.88625 8.566875 10.75 8.125 C8.43260203 7.17697356 6.22082885 6.15154089 4 5 C4 4.34 4 3.68 4 3 C3.401875 3.33 2.80375 3.66 2.1875 4 C0 5 0 5 -3 5 C-3.0825 5.61875 -3.165 6.2375 -3.25 6.875 C-4 9 -4 9 -5.8125 10.3125 C-8.32299678 11.10151327 -9.55492066 10.87324262 -12 10 C-11.13375 9.46375 -10.2675 8.9275 -9.375 8.375 C-5.77876937 5.99463782 -2.97201894 3.11354365 0 0 Z " fill="#C60E11" transform="translate(355,138)"/>
<path d="M0 0 C2.97549085 2.89507218 5.49642139 5.66189518 8 9 C0.08 9 -7.84 9 -16 9 C-16.33 8.34 -16.66 7.68 -17 7 C-11.72 7.33 -6.44 7.66 -1 8 C-1 7.01 -1 6.02 -1 5 C-0.34 5 0.32 5 1 5 C0.67 3.35 0.34 1.7 0 0 Z " fill="#BA100F" transform="translate(435,157)"/>
<path d="M0 0 C1.125 3.75 1.125 3.75 0 6 C-0.95162775 13.97722518 -1.14473689 21.97514378 -1 30 C-5.41480776 23.37778836 -4.15229712 14.98525615 -2.66796875 7.5078125 C-1.97340835 4.90016467 -1.05415403 2.48193227 0 0 Z " fill="#C30E0E" transform="translate(296,109)"/>
<path d="M0 0 C0 0.66 0 1.32 0 2 C-0.9075 1.67 -1.815 1.34 -2.75 1 C-9.51284037 -0.8930466 -17.08830941 -1.31544625 -23.5 1.8125 C-26.13795993 3.35680571 -28.64890352 5.04075294 -31 7 C-31 4.75 -31 4.75 -30 2 C-21.84773488 -4.15579203 -9.22531316 -3.59241167 0 0 Z " fill="#C40D0E" transform="translate(347,105)"/>
<path d="M0 0 C0.33 0.66 0.66 1.32 1 2 C0.01 2.495 0.01 2.495 -1 3 C-1.65213292 5.02463255 -1.65213292 5.02463255 -2 7 C-2.99 7 -3.98 7 -5 7 C-5.268125 7.598125 -5.53625 8.19625 -5.8125 8.8125 C-6.99917406 10.99847854 -8.09599113 12.41332594 -10 14 C-10.66 14 -11.32 14 -12 14 C-12.33 15.32 -12.66 16.64 -13 18 C-13.33 17.01 -13.66 16.02 -14 15 C-10.80864349 8.85764018 -5.28733063 4.29427869 0 0 Z " fill="#D30C0E" transform="translate(223,93)"/>
<path d="M0 0 C0.66 0 1.32 0 2 0 C1.855625 0.556875 1.71125 1.11375 1.5625 1.6875 C-0.46543661 10.02457274 -0.36616949 16.71840678 2 25 C1.34 25 0.68 25 0 25 C-2.4931768 21.2602348 -2.26776473 19.20894814 -2.25 14.75 C-2.25515625 13.46609375 -2.2603125 12.1821875 -2.265625 10.859375 C-1.99128978 6.87344559 -1.23202929 3.77431194 0 0 Z " fill="#C4100E" transform="translate(225,114)"/>
<path d="M0 0 C0.87454834 0.00523682 1.74909668 0.01047363 2.65014648 0.01586914 C3.59438477 0.0190918 4.53862305 0.02231445 5.51147461 0.02563477 C6.50469727 0.03401367 7.49791992 0.04239258 8.52124023 0.05102539 C9.51833008 0.05553711 10.51541992 0.06004883 11.54272461 0.06469727 C14.01478872 0.07652532 16.48673541 0.0930069 18.95874023 0.11352539 C17.80700668 2.58152586 16.91090458 4.16136105 14.95874023 6.11352539 C14.95874023 4.46352539 14.95874023 2.81352539 14.95874023 1.11352539 C12.37381235 1.20069156 9.79226522 1.30757658 7.20874023 1.42602539 C6.47913086 1.44858398 5.74952148 1.47114258 4.99780273 1.49438477 C0.75303404 1.7066232 -1.95511777 2.08423338 -5.04125977 5.11352539 C-2.63796259 0.14671123 -2.63796259 0.14671123 0 0 Z " fill="#BD1011" transform="translate(422.041259765625,87.886474609375)"/>
<path d="M0 0 C0 0.99 0 1.98 0 3 C0.04125 3.845625 0.0825 4.69125 0.125 5.5625 C0 8 0 8 -2 10 C-3.98821313 10.39764263 -5.98944339 10.73775349 -8 11 C-5.50127818 7.1626772 -2.9156164 3.54039134 0 0 Z " fill="#DB090A" transform="translate(406,106)"/>
<path d="M0 0 C2.31 0 4.62 0 7 0 C6.29875 0.556875 5.5975 1.11375 4.875 1.6875 C1.88655739 4.09124732 -1.05940238 6.53810432 -4 9 C-4.33 7.02 -4.66 5.04 -5 3 C-4.34 3 -3.68 3 -3 3 C-2.67 3.33 -2.34 3.66 -2 4 C-1.34 2.68 -0.68 1.36 0 0 Z " fill="#D4090C" transform="translate(231,105)"/>
<path d="M0 0 C0.42410156 0.39832031 0.84820312 0.79664063 1.28515625 1.20703125 C5.32767445 4.85862461 8.88650302 7.12157254 14 9 C14 9.66 14 10.32 14 11 C12.68 11 11.36 11 10 11 C10 10.34 10 9.68 10 9 C9.0925 8.773125 8.185 8.54625 7.25 8.3125 C3.52482554 6.80810262 2.16557398 5.33165227 0 2 C0 1.34 0 0.68 0 0 Z " fill="#CA0D10" transform="translate(227,140)"/>
<path d="M0 0 C1.95803507 -0.05389087 3.91648909 -0.09274217 5.875 -0.125 C7.51082031 -0.15980469 7.51082031 -0.15980469 9.1796875 -0.1953125 C12 0 12 0 14 2 C9.38 2.33 4.76 2.66 0 3 C0 2.01 0 1.02 0 0 Z " fill="#EBEBEB" transform="translate(317,182)"/>
<path d="M0 0 C0.66 0.33 1.32 0.66 2 1 C-0.475 4.465 -0.475 4.465 -3 8 C-2.01 9.65 -1.02 11.3 0 13 C-1.32 12.67 -2.64 12.34 -4 12 C-4.8125 8.8125 -4.8125 8.8125 -5 5 C-2.5625 2.0625 -2.5625 2.0625 0 0 Z " fill="#CB0D12" transform="translate(415,119)"/>
<path d="M0 0 C3.84762566 3.4201117 6.60634022 7.46774256 9 12 C9 12.66 9 13.32 9 14 C8.34 14 7.68 14 7 14 C6.34 12.02 5.68 10.04 5 8 C4.01 8 3.02 8 2 8 C1.34 5.36 0.68 2.72 0 0 Z " fill="#CA0E0C" transform="translate(664,100)"/>
<path d="M0 0 C0 3 0 3 -1.2421875 4.60546875 C-1.78101563 5.12753906 -2.31984375 5.64960937 -2.875 6.1875 C-3.40867187 6.71730469 -3.94234375 7.24710937 -4.4921875 7.79296875 C-6 9 -6 9 -8 9 C-8 9.99 -8 10.98 -8 12 C-8.66 12 -9.32 12 -10 12 C-7.92599447 6.74585267 -6.92489964 4.88286808 -2 2 C-1.34 1.34 -0.68 0.68 0 0 Z " fill="#DE0A0B" transform="translate(307,97)"/>
<path d="M0 0 C0.66 0 1.32 0 2 0 C0.63629701 2.99220268 -0.94908083 5.29026529 -3.125 7.75 C-3.93324219 8.67039062 -3.93324219 8.67039062 -4.7578125 9.609375 C-5.16773438 10.06828125 -5.57765625 10.5271875 -6 11 C-6.33 10.01 -6.66 9.02 -7 8 C-6.21625 7.236875 -5.4325 6.47375 -4.625 5.6875 C-1.92742283 3.09108195 -1.92742283 3.09108195 0 0 Z " fill="#C70D0C" transform="translate(429,101)"/>
<path d="M0 0 C0.75 1.625 0.75 1.625 1 4 C-0.9375 7.25 -0.9375 7.25 -3 10 C-4.32 9.67 -5.64 9.34 -7 9 C-6.57847656 8.51789063 -6.15695312 8.03578125 -5.72265625 7.5390625 C-5.17480469 6.90742188 -4.62695312 6.27578125 -4.0625 5.625 C-3.51722656 4.99851563 -2.97195313 4.37203125 -2.41015625 3.7265625 C-0.93041376 2.04367666 -0.93041376 2.04367666 0 0 Z " fill="#CC0D0F" transform="translate(266,137)"/>
<path d="M0 0 C2.78388975 1.70625501 3.85384206 2.47626739 4.75 5.6875 C4.8325 6.450625 4.915 7.21375 5 8 C3.02 8 1.04 8 -1 8 C-1 7.01 -1 6.02 -1 5 C-0.34 5 0.32 5 1 5 C0.67 3.35 0.34 1.7 0 0 Z " fill="#DC090E" transform="translate(435,157)"/>
<path d="M0 0 C2.31 0.66 4.62 1.32 7 2 C7 2.66 7 3.32 7 4 C7.99 4.33 8.98 4.66 10 5 C10 5.66 10 6.32 10 7 C5.56541027 5.6062718 3.12621626 3.39417765 0 0 Z " fill="#C6110D" transform="translate(217,155)"/>
<path d="M0 0 C1.32 0.33 2.64 0.66 4 1 C4.33 2.98 4.66 4.96 5 7 C5.66 7 6.32 7 7 7 C6.67 8.32 6.34 9.64 6 11 C4.02 7.37 2.04 3.74 0 0 Z " fill="#CA0C11" transform="translate(658,123)"/>
<path d="M0 0 C2.46800047 1.15173355 4.04783565 2.04783565 6 4 C6.125 6.625 6.125 6.625 6 9 C2.91910327 6.22719294 1.31224548 3.93673644 0 0 Z " fill="#CB090E" transform="translate(209,144)"/>
<path d="M0 0 C0.75 1.5625 0.75 1.5625 1 4 C-0.36068323 7.22897886 -1.76639367 10.38319684 -5 12 C-4.01 9.03 -3.02 6.06 -2 3 C-1.34 3 -0.68 3 0 3 C0 2.01 0 1.02 0 0 Z " fill="#D20B0F" transform="translate(283,141)"/>
<path d="M0 0 C3.24299151 2.38957269 5.50902342 4.2047869 7 8 C5.68 8 4.36 8 3 8 C1.92474806 5.34771188 0.90543849 2.71631546 0 0 Z " fill="#CA0D10" transform="translate(421,140)"/>
<path d="M0 0 C3.53600465 1.91135386 5.78972846 3.62642766 8 7 C6.35 6.67 4.7 6.34 3 6 C2.67 5.01 2.34 4.02 2 3 C1.34 2.67 0.68 2.34 0 2 C0 1.34 0 0.68 0 0 Z " fill="#C81011" transform="translate(357,93)"/>
<path d="" fill="#800000" transform="translate(0,0)"/>
</svg>
